<?xml version="1.0" encoding="utf-8"?>
<!-- Generator: Adobe Illustrator 21.1.0, SVG Export Plug-In . SVG Version: 6.00 Build 0)  -->
<svg version="1.1" id="图层_1" xmlns="http://www.w3.org/2000/svg" xmlns:xlink="http://www.w3.org/1999/xlink" x="0px" y="0px"
     viewBox="0 0 211.9 79.9" style="enable-background:new 0 0 211.9 79.9;" xml:space="preserve">
  <style type="text/css">
    .st0{fill:#E83E43;}
    .st1{fill:#FFFFFF;}
    .st2{fill:#44403F;}
  </style>
    <g>
    <path class="st0" d="M67.9,79.9H12c-6.7,0-12-5.4-12-12V12C0,5.3,5.4,0,12,0h55.9c6.7,0,12,5.4,12,12v55.9
      C79.9,74.5,74.5,79.9,67.9,79.9z"/>
        <g>
      <path class="st1" d="M65.1,31.6l-3.6,2.5l-11.1,7.6l0,0l-5,3.5c-1.8,1.3-4.3,1.3-6.1,0l-5.6-3.8c-0.3-0.3-0.7-0.3-1-0.1
        c-0.4,0.2-0.5,0.7-0.3,1.1l5.6,9.7c1.1,1.9,3.7,2.4,5.4,1l23.1-19.4c0.3-0.2,0.5-0.6,0.5-1C67.1,31.7,65.9,31.1,65.1,31.6z"/>
            <polygon class="st1" points="60.7,22.9 60.7,12.7 53.5,12.7 53.5,22.9 32,22.9 32,26 53.5,26 53.5,36.9 60.7,32 60.7,26 67.1,26
        67.1,22.9 		"/>
            <polygon class="st1" points="12.7,26 19.1,26 19.1,67.1 26.3,67.1 26.3,12.7 19.1,12.7 		"/>
            <path class="st1" d="M53.5,64.1h-6v3h6l0,0h4.4l0,0H58c1.5,0,2.8-1.2,2.8-2.8l0,0v-0.2V41.6l-7.2,6L53.5,64.1L53.5,64.1z"/>
    </g>
        <g>
      <polygon class="st2" points="99.9,17.6 105.8,17.6 105.8,55.5 112.4,55.5 112.4,5.5 105.8,5.5 		"/>
            <path class="st2" d="M128.6,30c-0.4-1-1.4-1.7-2.6-1.7h-4.8l5.9,13.6h6.6L128.6,30z"/>
            <path class="st2" d="M144,5.5h-6.6v9.4h-19.7v2.8h19.7v35h-5.5v2.8h5.5h3.8h0.1c1.5,0,2.7-1.2,2.7-2.7v-0.1l0,0l0,0v-35h5.9v-2.8
        H144V5.5z"/>
            <path class="st2" d="M209.2,5.5L209.2,5.5h-2.6H189h-5.3v2.8V42h5.3V8.3h17.6V42h5.3V8.3V8.2l0,0C211.9,6.7,210.7,5.5,209.2,5.5z"
            />
            <path class="st2" d="M168.5,14.9h-6.6v2.8v25.6v2.8h13.9c1.5,0,2.7-1.2,2.7-2.7v-0.1V17.6v-2.8h-6.6h-3.4V14.9z M171.9,43.3h-3.3
        V17.6h3.3V43.3z"/>
            <polygon class="st2" points="200.5,14.9 195.2,14.9 195.2,40.3 183.8,51.8 183.8,55.5 187.5,55.5 197.8,45.1 208.2,55.5
        211.9,55.5 211.9,51.8 200.5,40.3 		"/>
    </g>
        <g>
      <path class="st2" d="M106.4,63.2h0.8v11.2h-0.8v-3.5c-2.3,0.9-2.7,1-2.9,1.2c-0.1-0.2-0.2-0.6-0.4-0.8c0.2-0.1,0.4-0.3,0.4-0.8
        v-6.1h0.8v6.4l2-0.7v-6.9H106.4z M113.2,66.2c-0.3,2-0.9,3.6-1.7,4.9c0.7,1.1,1.6,1.9,2.7,2.5c-0.2,0.2-0.4,0.4-0.6,0.7
        c-1-0.6-1.9-1.4-2.6-2.4c-0.8,1-1.7,1.8-2.9,2.5c-0.1-0.2-0.4-0.5-0.5-0.7c1.3-0.6,2.3-1.5,3-2.5c-0.6-1.1-1.2-2.4-1.5-3.7
        c-0.3,0.7-0.7,1.2-1,1.7c-0.1-0.2-0.4-0.5-0.6-0.7c1.1-1.3,1.7-3.3,2.1-5.5l0.8,0.1c-0.1,0.8-0.3,1.6-0.5,2.3h4.4v0.8L113.2,66.2
        L113.2,66.2z M109.5,66.4c0.4,1.5,0.9,2.8,1.6,4c0.6-1.1,1-2.5,1.3-4.2h-2.8L109.5,66.4z"/>
            <path class="st2" d="M123.7,70.8c-0.3,0.9-0.8,1.9-1.2,2.6c-0.1-0.1-0.5-0.2-0.7-0.3c0.4-0.7,0.9-1.6,1.2-2.5L123.7,70.8z
        M125.3,70.2v3.2c0,0.4-0.1,0.6-0.4,0.7c-0.3,0.1-0.7,0.1-1.4,0.1c0-0.2-0.1-0.5-0.3-0.7c0.5,0,1,0,1.1,0s0.2,0,0.2-0.2v-3.2h-2.6
        v-0.7h5.9v0.7h-2.5V70.2z M124.5,64.9H122v-0.7h2.5V63h0.8v1.2h2.5v0.7h-2.5V66h2.2v0.7h-5.2V66h2.2V64.9z M127.4,67.8v0.7h-4.9
        v-0.7H127.4z M126.7,70.7c0.4,0.6,0.8,1.4,1,1.9l-0.7,0.3c-0.2-0.5-0.6-1.4-0.9-2L126.7,70.7z M129.1,66c-0.3,1-0.6,1.9-1,2.6
        c-0.1-0.1-0.5-0.4-0.7-0.5c0.8-1.2,1.3-3.1,1.5-5.1l0.8,0.1c-0.1,0.7-0.2,1.5-0.4,2.1h3l0,0h0.1h0.1l0.5,0.2
        c-0.2,1.1-0.6,2.4-0.9,3.2l-0.7-0.2c0.2-0.6,0.5-1.5,0.7-2.3h-3V66z M130.6,67.5c0,0.3,0,0.7,0,1.1c0.4,2.2,1.3,4.2,2.8,5
        c-0.2,0.2-0.4,0.5-0.6,0.7c-1.2-0.7-2-2.1-2.5-3.8c-0.3,1.3-1,2.7-2.3,3.9c-0.1-0.2-0.4-0.4-0.6-0.5c2.2-2,2.4-4.6,2.4-6.3V67h0.8
        L130.6,67.5L130.6,67.5z"/>
            <path class="st2" d="M142.7,70.2c-0.3,1.1-0.7,2.2-1.3,2.9c-0.1-0.1-0.4-0.3-0.6-0.4c0.5-0.7,0.9-1.7,1.2-2.7L142.7,70.2z
        M146.5,65.3h-5.6v-0.7h2.7c-0.1-0.4-0.4-1-0.6-1.4l0.7-0.2c0.3,0.5,0.6,1.1,0.7,1.6h2.1L146.5,65.3L146.5,65.3z M144.2,69.3v4.1
        c0,0.4-0.1,0.6-0.3,0.7c-0.3,0.1-0.7,0.1-1.3,0.1c0-0.2-0.1-0.5-0.2-0.7c0.4,0,0.9,0,1,0s0.2,0,0.2-0.2v-4h-2v-2.9h4.4v2.9H144.2z
        M142.3,68.6h2.9V67h-2.9V68.6z M145.7,72.3c-0.1-0.6-0.5-1.5-0.9-2.2l0.6-0.3c0.4,0.7,0.8,1.6,0.9,2.2L145.7,72.3z M149,67
        c-0.2,2.8-0.9,5.6-2.8,7.4c-0.1-0.2-0.4-0.4-0.6-0.5c1.8-1.6,2.4-4.2,2.6-6.9h-1.6v-0.7h1.7c0.1-1.1,0.1-2.2,0.1-3.2h0.8
        c0,1,0,2.1-0.1,3.2h2.9V67H149z M150.9,73.4c0.2,0,0.3,0,0.4,0c0.1,0,0.1-0.1,0.2-0.3c0-0.2,0-0.7,0.1-1.3
        c0.2,0.1,0.4,0.3,0.6,0.3c0,0.6-0.1,1.2-0.1,1.4c-0.1,0.2-0.2,0.4-0.4,0.5s-0.5,0.1-0.7,0.1h-0.8c-0.3,0-0.6,0-0.7-0.2
        c-0.2-0.1-0.3-0.3-0.3-1.1v-4.7h0.7v4.8c0,0.3,0,0.4,0.1,0.5c0.1,0,0.2,0.1,0.3,0.1L150.9,73.4L150.9,73.4z M151,65.8
        c-0.2-0.5-0.7-1.3-1.3-1.8l0.6-0.3c0.5,0.5,1,1.3,1.3,1.8L151,65.8z"/>
            <path class="st2" d="M170.7,73.2c0,0.6-0.2,0.8-0.5,1c-0.4,0.1-1.1,0.1-2.3,0.1c0-0.2-0.2-0.6-0.3-0.8c0.9,0,1.7,0,2,0
        c0.2,0,0.3-0.1,0.3-0.3v-2.6h-3.5v3.7h-0.8v-3.7h-3.2c-0.2,1.4-0.6,2.8-1.6,3.9c-0.1-0.2-0.4-0.4-0.6-0.5c1.4-1.5,1.5-3.7,1.5-5.5
        V64h9L170.7,73.2L170.7,73.2z M165.6,69.7v-2.2h-3.1v0.8c0,0.4,0,0.9,0,1.4L165.6,69.7L165.6,69.7z M162.5,64.7v2.1h3.1v-2.1
        H162.5z M169.9,64.7h-3.5v2.1h3.5V64.7z M169.9,69.7v-2.2h-3.5v2.2H169.9z"/>
            <path class="st2" d="M182.7,63.3c-0.4,0.9-0.8,1.9-1.3,2.8v8.2h-0.8v-6.9c-0.4,0.6-0.9,1.1-1.3,1.6c-0.1-0.2-0.4-0.6-0.5-0.8
        c1.3-1.2,2.5-3.1,3.2-5.1L182.7,63.3z M190,66.6h-1.6v6.6c0,0.7-0.2,0.9-0.6,1c-0.5,0.1-1.3,0.1-2.6,0.1c-0.1-0.2-0.2-0.6-0.3-0.8
        c1.1,0,2.1,0,2.4,0c0.3,0,0.4-0.1,0.4-0.4v-6.6h-5.1v-0.8h5.1v-2.6h0.8v2.6h1.6v0.9H190z M185.1,71.4c-0.4-0.8-1.2-2.1-1.8-3.1
        L184,68c0.7,1,1.5,2.3,1.9,3L185.1,71.4z"/>
            <path class="st2" d="M201,71h-2.4v1.2h-0.8v-8h3.1V71H201z M198.6,65v5.3h1.6V65H198.6z M205.5,65.3c0,5.5-0.2,7.8-4,8.9
        c-0.1-0.2-0.3-0.5-0.5-0.6c3.6-1,3.7-3.1,3.7-8.3H205.5z M203,71.4h-0.8v-7.8h5.7v7.8h-0.8v-7H203L203,71.4L203,71.4z M205.7,71.4
        c1.1,0.8,2.2,1.7,3,2.3l-0.5,0.5c-0.7-0.7-1.9-1.6-2.9-2.4L205.7,71.4z"/>
    </g>
  </g>
</svg>
